<svg xmlns="http://www.w3.org/2000/svg" viewBox="0 0 24 24" width="400" height="400">
  <circle cx="12" cy="12" r="11" fill="#39B54A"/>
  <path d="M17.697,7.55c-1.221-1.354-2.871-2.2-4.697-2.2s-3.476,0.846-4.697,2.2C6.676,8.772,6,10.514,6,12.4
    c0,1.884,0.676,3.625,1.999,4.849l-0.013,0.001l0.002,0.001c1.321,1.228,3.06,1.938,4.899,1.938c1.834,0,3.573-0.71,4.894-1.938
    l0.002-0.001l-0.013-0.001C17.324,16.024,18,14.283,18,12.4C18,10.514,17.324,8.772,17.697,7.55z M12,14.15
    c-1.743,0-3.15-1.407-3.15-3.15s1.407-3.15,3.15-3.15s3.15,1.407,3.15,3.15S13.743,14.15,12,14.15z" fill="#FFFFFF"/>
</svg>
